<?xml version="1.0" encoding="UTF-8"?>
<svg id="Ebene_1" xmlns="http://www.w3.org/2000/svg" version="1.1" viewBox="0 0 595.28 841.89">
  <!-- Generator: Adobe Illustrator 30.1.0, SVG Export Plug-In . SVG Version: 2.1.1 Build 136)  -->
  <path d="M88.01,193.25l-.33-4.66-.29-4.41-.34-5.64c-.22-3.6-.55-7.29-2.04-10.36-1.6-3.31-4.93-4.21-7.5-1.96-1.5,1.31-2.69,3.29-3.47,5.45-2.29,6.32-4.31,12.6-5.98,19.2-1.06,4.18-1.11,8.2-.66,12.52l3.13,29.52c.54,5.07,1.3,9.46.81,14.59-.8,8.53.62,16.15,0,24.52-.24,3.19-.1,6.27-.14,9.41l-.2,15.27-.36,8.79c-.29,6.98-.18,13.88-.09,20.97.04,3.3,1.3,6.31,2.15,9.37,2.1,7.64,3.92,15.15,5.49,23.01.31,1.54.34,3.23.47,4.77.63,7.32-2.06,14.49-8.09,16.83-5.01,1.95-10.41-.06-13.57-5.17-1.68-2.72-2.66-5.9-3.91-8.94-3.39-8.23-2.25-10.48-4.36-16.4-2.4-6.73-3.88-16.3-3.48-23.44l.27-4.83.3-9.81.31-45.07.32-9.84c.09-2.73.04-5.24-.02-8l-.23-9.85-.56-5.35-2.65-20.34c-.79-6.08-.86-15.12-1.36-18.8l-2.09-15.58c-.27-1.99-.12-4-.29-6.02l-.26-3.18-.15-12.78c-.1-8.43-4.65-28.35-6.05-38.61-1.14-8.36-2.11-16.49-2.81-24.92-.67-7.98-1.97-15.25-3.57-23.01s-2.4-15.7-3.24-23.68c-.83-7.96,3.68-14.72,9.94-15.9s12.28,3.54,13.66,11.28c.71,3.98,1.21,7.85,1.7,11.9.63,5.22,1.58,10.08,2.69,15.19,1.28,5.88,1.9,11.72,2.53,17.81l.71,6.87c.17.08.68.31.8.34.17.05.21.74.04.7l-.92-.21,1.05,1.07c.23.23-.55,1.2-.53,1.62.17,3.42,1.5,10,4.79,12.11.77.5,2.77.5,3.55,0,3.47-2.24,4.36-7.93,5.34-11.99-.9-.54-1.7-3.17-1.39-3.5.28-.3.75-.62.93-.41.31.35.48.53.57.63.15.14.57-.53.62-.98,1.66-14.13,4.03-29.84,6.97-44.09.99-4.78,2.42-8.91,3.99-13.31,2.02-5.62,6.81-9.13,11.86-8.73s9.53,4.44,10.8,10.51c.86,4.1,1.3,8.16,1.71,12.38l2.66,27.15c.56,5.7,1.16,15.61,6.96,16.86,3.46.74,1.89,1.3,8.19.97l.5-1.5.3,1.31c.07.29.79,0,.9-.27l.37-.91c.08-.19.5.84.68.85l5.37.41c.35.03,1.21-.21,1.52-.23.37-.03.71,1.04,1.1,1.32l5.26,3.6c0,.4,2.81-.69,2.5.46l-.32,1.18,2,1.01-.97-1.37.86.22c.22.06.2,1.42.39,1.55,1.48,1.07,4.24,2.96,5.83,3.93l2.05-.6-1.35,1.28,2.5,1.43c.38-.91.77-1.73,1.18-2.03.37-.27,1.34.58,1.37,1.11l-1.22-.27c-.29-.06-.47.8-.48,1.28,0,.35.63.49.9.36l.55-.28c.07-.04.1.13.05.22l-.44.82c1.93,1.22,5.02,2.09,6.99,1.08-.29-.49-.47-.7-.42-.83l.21-.58c-.24-.57-.56-1.65-.3-2.12.28-.52,1.17-.89,1.61-.67.56.28.61,1.3.8,2.68l.74-2.11c.38-.82,1.7-2.65.8-3.28-.7-.49-1.36-.9-1.44-1.57s.65-1.47,1.49-2.01c-1.88-6.54-3.77-18.84-3.25-25.42l.37-4.74c.36-4.55.96-8.71,3.07-12.45,2.29-4.08,4.33-8.29,7.56-11.36,2.54-2.42,4.84-5.01,7.6-6.94l7.24-5.05c5.05-3.52,9.85-7.03,15.26-9.81,3.1-1.59,6.34-1.79,9.71-2.14,6.67-.69,9.92.76,16.3,3.59,3.95,1.75,6.48,5.36,9.44,9.09,2.72,3.43,4.25,7.45,5.1,12.01,1.61,8.63,2.02,14.12,1.54,23.01l-.37,6.8-.31,3.67c-.42,5.01-.54,10.42,3.68,12.88,5.92,3.47,4.79.34,5.46,1.05l1.15,1.24.38.42c.06.07.12.02.11-.07l-.06-1.04c-.03-.56,1.39-.73,1.82-.33.37.35.41,1.28.45,2.18.1.62.26.17.29-.37-.01-.37.06-1.63.36-1.72l1.08-.36.8-1.41.22,4.55-1.46.23,5.69,2.67c.62.29,1.45.74,2.18,1.16l.8-1.19c.24-.35,1.12.8,1.1,1.25-.04.66-.06,1.98.35,2.36l2.71,2.55.32-.87c.04-.12.3-.51.35-.41l.19.45c.02.37-.02.74.11.76l.96.14c.41.06.26,1.79.51,2.22.9,1.53,2.5,3.63,3.21,5.56l7.04,19.28c2.36,6.47,7.99,16.62,7.24,26.3l-.35,4.5c-.22,2.77-.32,5.84-1.28,8.46-1.47,4.01-3.3,7.68-5.32,11.28-1.62,2.87.02,2.24-.88,3.58-.22.32-1.13,0-1.53-.26l-8.57,5.95c-4.44,3.08-6.19,9.3-3.55,14.74l4.19,8.63c.53-.4,1.83-.5,2.04.15.12.36-.42,1.39-.53,1.32-.73.21-.99.32-.45.36.35.07.83.04.73.18s-.36,1.02-.29,1.18c2.23,4.83,2.17,5.96,4.41,10.81l.15-3.05c-.55-.52-.69-.65-.57-.54l1.2-.14-.11,3.29.44.21c.08.04.24.23.52.56l-1.57.29,1.63,4.9c.36-.49.55-.81.56-.99.04-.49.41-1.23.71-1.15s1.04.6,1.06.96l.13,2.2-1.96-.06c-.36-.64-.39-.68-.24-.36l5.27,18.94c3.02,10.86,5.44,21.03,4.56,32.62-.63,8.23-2.26,15.8-4.74,23.48-1.34,4.16-3.76,7.64-7.52,9.1-7.17,2.79-12.04,3.43-19.52,2.59l-3.36-.38c-1.96-.22-3.92-.55-5.85-.08-5.78,1.43-5.59,8.04-5.1,13.63l1.09,12.63.27,9.32c.1,3.35.35,6.75.1,10.15l-.37,5.06c-.36,4.83-.76,9.09-1.88,13.87-1.84,7.84-4.52,16.73-7.28,23.98-.65,1.69,1.59-.74,2.69,1.89.34.8-.22,2.08-1.13,2.23l-1.15.18c-.3.05-.3,1.08-.35,1.48-.02.19-.56.51-.68.39-.16-.16-.38-.54-.39-.79v-1.24c0-.09-.15-.41-.27-.71l-3.71,8.19,3.24.67c-1.42.88-2.36.54-3.87.59l-3.77,8.53-27.38.02,2.98-6.56-1.5-.98-.32-3.56c-.02-.23.09-.91.14-1.08.08-.25.68-.26.9-.2s.17.71.18,1.21l.06,2.63c0,.17.37.48.49.55,1.19.7,1.43-3.12,1.39-4,4.84-2.94-.49-7.6,4.22-7.6,4.55-9.09,8.41-18.84,10.95-29.13,2.5-10.14,2.74-14.33,2.22-25.04-.16-3.21-1.41-6.89-3.88-8.05-3.78-1.77-7.24.38-10.28,2.64l-9.61,7.12c-2.84,2.11-5.75,3.37-9.07,4.05-4.07.83-8.04,1.77-12.15,1.05-2.72-.47-5.63-.3-8.19-1.48-3.76-1.73-7.39-3.74-10.63-6.53-2.8-2.41-4.71-5.85-6.82-9.05-3.78-5.73-4.91-10.22-8.86-15.04-4.19-5.12-8.69-1.06-12.24,2.1-4.3,3.84-10.26,4.27-14.64.25-.87-.8-2.29-2.23-2.8-3.37-2.16-4.84-4.08-9.82-4.99-15.2-1.38-8.17-2.77-15.9-4.85-23.87-1.78-6.79-2.93-13.48-4.39-20.39-2.22-10.53-3.59-20.7-4.82-31.53l-5.58-49.24ZM206.33,119.16c1-.62,2.17-2.55,1.57-3.54l-1.66.07c-.52.02-.12-2.54.49-3.08.25-.22,1.11.5,1.18.87l.47,2.43,1.78-5.78c-.95-.62-1.49-1.51-1.03-2.47s1.01-1.03,2.04-.61l.78-2.91c-.78-.55-1.38-1.07-1.44-1.57s.48-1.63.88-1.8c.35-.14.84.17,1.47.52,4.17-12.05,7.5-22.82,7.14-36.18-.09-3.31-.33-6.54-2-9.26-2.86-4.65-8.87-3.56-12.36-1.01l-6.26,4.57c-5.4,3.94-12.93,7.66-13.6,16.48-.58,7.7.79,11.76,2.71,18.72l3.54,12.83c.94,3.4,1.94,6.99,3.09,10.2.85-.07,1.57-.11,1.94.16.32.23.42,1.38.33,1.81l-.19,1.01c-.03.17.43.31.53.19,1.1-1.37-.17-.52.85-1.89.16-.21.82-.32.9-.05l.43,1.39c.09.29.33,1.43.07,1.49l-1.15.24c2.07,1.24,4.79,1.01,6.57-1.03l.94-1.77ZM240.82,168.43c.36-.32,1.08-.91,1.42-1.04s.81,1.27,1.17,1.35c.89.22,2.58.53,3.75.73-.07-.51-.28-1.1-.55-1.64-.22-.08.62-1.17.9-.93l1.01.86-.94.98c-.14.14.19.97.37.99l3.89.41c.03-1.16.03-2.24.37-2.52s1.35-.24,1.46.23l.49,2.08.7-2.37c.28-.15,1.26-.19,1.43.14l.66,1.35,1.15-1.69c.45-.66,1,3,5.44-2.48-.03-1.06-.5-2.48-.87-3.23.31-.35.75-1.11.97-.93l1.1.91c1.72-3.29-.53-9.26-2.17-12.58-3.29-6.66-4.71-14.34-7.84-19.1-3.33-5.07-9.1-6.73-14.22-4.42-3.77,1.71-7.02,4.7-9.69,8.45-2.37,3.35-4.09,7.2-6.35,10.76-4.12,6.48-1.58,12.44.31,18.13l.46-2.9.27,1.63,1.2-.14c.45-.05.74,2.46.18,2.71l-1.26.57c.88,2.81,2.92,4.79,5.65,5.26-.26-1.65-.65-2.39-1.2-3.91.44.08.95,1.01,1.28,1.75l1.34-1.74-.97,2.89c-.11.34.17,1.29.45,1.25,2-.27-.15-2.17,1.45-2.85.38-.16,1.28.11,1.39.57l.44,1.79,3.29-.93-.24-1.17c-.02-.1.24-.06.29.02l.33.47c.16.32.22.59.33.51l.46-.36c.2-.16.68-.54.55-.44-.09.08.3.58.37.52ZM159.44,237.07l3.63-1.09.11-2.66c.51.88,1.02,1.77,1.88,1.66,1.41-.19,2.89-1.84,3.83-3.07-.19-.38-.67-.96-.56-1.17l.54-.98.57-1.05c.12-.23.75.1,1.12.14.35-1.75.46-3.77.19-5.44-.35,1.13-.26,1.87-.59,1.99-.42.15-1.16.43-1.36.09-.17-.28-.32-1.37-.28-1.71l.16-1.2c.03-.21.57.39.51.58l-.21.71c-.08.26,0,.88.07,1.15.57,1.97.86-2.49,1.52-2.85l-3.74-9.51c-.74-1.88-1.22-3.9-1.85-5.85-2.26-6.98-.82-7.81-1.88-13.53,1.51-7.58-.08-4.34,2.42-12.25.23-.71.46-1.15.92-1.74,2.12-2.7,3.13-6.52,2.69-10.2-.33-2.76-1.83-4.81-3.3-6.87-.86-1.2-2.28-3.18-3.25-3.88-.36-.26-2,.39-1.98-.11.06-.85.45-1.71.23-2.18-.24-.53-.72-1.26-1.05-1.75-2.59-3.81-4.98-7.55-8.16-10.69-4.55-4.49-9.36-8.1-14.5-11.54-6.33-4.24-13.31-10.23-19.91-2.18-2.15,2.62-3.7,5.51-4.4,9.22-.89,4.67-1.18,9.78-.95,14.48.87.59,1.51,1.43,1.49,2.37-.03,1.06-.42,2.31-1.75,1.99-.54,6.28.1,12.82,2.83,18.71,2.65,5.73,5.46,11.09,8.31,16.28-.1-1.54.04-2.86.8-2.88.49-.02,1.33.52,1.61,1.15.52,1.19-1.84,1.81-1.83,2.17.03.97,5.71,11.18,6.92,14.4l8.16,21.77c.94-.69,1.62-1.32,2.64-2.3l-.06,4.23c-3.76-.37,2.4,4.88,3.08,5.16l.18-3.18c.52-.09,1.33-.09,1.72.13.33.18.85,1.46.58,1.77-.36.43-1.14.74-1.86,1.05.1.63,1.8,1.23,2.1.67,0-.82.06-1.88.42-2.22.4-.38,1.45-.31,1.69.16.28.56.18,1.56-.13,2.42-.05-.03.44.23.67.36,1.12.6-.25-3.25.8-3.15.62.06,1.36.2,1.59.34-.67.43-1.24.56-1.3.95l-.26,1.75c1.54.08,3.36-.14,4.86-.44-.2-1.03-.27-1.75-.01-2.08.3-.39,1.14-.78,1.44-.5.25.24.67,1.1.66,1.25l-1.88,1.03,3.01.3c.42-1.45.24-2.7-.39-4.03l1.1.43c.37.15-.59,2.56.44,3.42ZM193.68,180.05l1.64-.12c1.36-1.22,3.55,1.27,3.58.01,0-.2-.02-.59-.13-.75l-.63-.95,1.13.08c.28.02.17.91.26,1.7.74.04,1.87-.32,2.57-.74-1.05-2.82-2.28-4.71-4.7-5.47.03.7.23,1.31-.06,1.4l-1.27.39c.07.05.39.23.54.25l.89.11c-.21.4-1.02.74-1.42.59s-.87-1.25-.68-1.66l.68-1.47-1.61.02c.33.53.75,1.24.71,1.71-.03.4-.39,1.17-.59,1.54l-.34-2.52-.33,2.5-.69-2.56-.38,2.62-.37-2.35c-1.82,1.32-3.52,3.25-4.17,6.22,1.77.67,2.47-2.02,3.37-1.03l.63.68c.56-.1.95-.16,1.37-.19ZM193.62,207.46c3.68,2.83,7.5-.11,8.84-3.7,1.4-3.78,2.02-7.68,1.95-11.63l-.59,2.33c-1.75-2.99,2.78-2.63-.27-6.48l.4-1.28-.24-1.32-.65-3.55c-.53.43-1.36,1.03-1.68.75-.99-.88-.88-2.05-1.64-1.71-.15.07-.35.52-.24.64l.87.89-2.33.2.94-1.79-2.91.48c-.2.91-.41,1.17-.48.63-.47-.94-.76-1.21-.68-.11-.23.44-1.28,1.14-1.53.81l-1-1.34-.95,1.35c-.69.98-1.01-1.82-3.28-1.4-.12,1.16-.43,3.28.18,4,.52.62,1.36,1.24,1.27,1.79-.13.77-.87,1.43-1.52,1.76-.47,6.7.29,14.66,5.52,18.68ZM263.26,287.94c.41.55.66.88.49.65l-.82.5c-.12.07.09.5.22.54l.81.26-.81.56c-.16.11-.12.85-.08,1.25,1.66-1.07,2.49-3.05,3.2-5.1-.44-.15-1.04-.22-1.1-.53l-.21-1.23c-.05-.3-.7-.9-.5-1.09l.83-.76c.16-.14.49.41.88.83-.45.65-.95,1.64-.11,2.43.69-2.23.67-4.41.43-6.44-.52,1.16-1.63.92-2,.39-.29-.42-.26-1.64.02-2.22.23-.47.87-.26,1.94-.28l-4.41-17.67c-1.52-6.08-3.27-11.88-5.29-17.51-.67.93-1.54,1.44-2.41.99-.16-1.09-.46-3.99.41-4.12l.93-.14-1.23-1.78c.09-.59-.08-1.45-.44-2.35l-1.28,2.58-1.02-2.91,1.18,1.58.75-1.84-2.72-5.62.24,2.77c-1.25.02-1.85-.06-2.44-1.13l1.84-1.09-1.71-.03,1.76-1.27c-1.59-3.02-3.16-6.15-4.83-8.73-.41-.64-.73-1.3-1.24-2.26l-.48,2.48c-.7-1.09-.36-2.35.05-3.53-1.82-3.41-4.73-9.61-7.47-11.73-3.08-2.39-7.13-.92-8.59,2.96-1.08,2.86-1.51,5.9-1.87,9.01l-.71,6.14c.85.13,1.45.72,1.69,1.55l-1.91.71,1.84.42c-.56.24-1.11.31-2,.25l-.98,5.87c-.15.9-.81,2.41-1.04,3.17l.94.75c.1.08-.36.43-.27.33l-1.06-.13c.56.37,1.6.96,1.6,1.49,0,.94-1.34.99-2.11.44-.21.33-.68,1.39-.67,1.91l.1,4.3c-.76-.07-1.95.15-2.13.71-1.43,4.48-3.02,8.52.77,11.99,1.98,1.81,4.55,2.55,6.96,3.65,6.05,2.74,8.63,11.18,12.51,16.7l2.72-.16c-.49.62-1.14,1.56-.9,2.08.21.46.76,1.19,1.08,1.62l.54-2.45.7,2.85.88-2.85c.29.19.43,1.63.17,2.18-.2.44-1.03.76-1.62.99l2.88,2.82,1.18.15c.22.03.05,1.41.25,1.64,1.35,1.62,4.12,4.1,5.9,5.09.63-.69,1.33-.93,1.98-.95l.44,2.3c.25-.91.47-1.86.84-2.22s1.72.15,1.8.71-.16,1.42-.46,2.35c1.59.8,5.24-.75,4.35-1.73l-.85-.95,1.68-2.14ZM203.5,305.71c.12-.52-.67-1.9-.77-2.08l1.53-1.18c-.99-.74-.63-.67.13-.86l2.18-8.49-1.33-.93c-.2-.14.21-.81.41-.95l1.02-.7-1.16-.21c-.03-.22.78-.77,1.04-.56l.82.67,1.03-3.4c.05-.16-.34-.66-.47-.73s.72-.35.75-.52c.14-.71.01-2.27-.31-3.09-.15-.05.53-.39.62-.17l.45,1.25.41-3.1-1.57-.04c-.23,0-.5-.9-.31-1.05l.88-.69c.08-.06.33-.43.34-.43s-.23-.04-.33-.06l-.66-.12c-.34-.44,1.27-.87,1.39-.39l.56,2.28c1.02-7.59-.1-8.27,2.76-16,.85-2.29,1.56-5.36.72-7.66-1.27-3.45-4.53-4.53-7.41-4.39l-3.99.18c-5.85.27-11.76-6.18-17.64,1.73l-6.48,8.73c-3.59,4.83-7.1,9.67-9.11,15.82-.08.23-.12,1.03.05,1.16l.9.69-2.19.35-2.75,6.73c-.11.27-1.51,4.66-.85,4.97-.39.42-1.16,1.98-.82,2.62.55,1.03.83,1.85,1.21,3.28l-1.89.51-.08,3.4,1.42-.64c.28-.12.64,1.06.48,1.01-.67-.19-1.2-.35-1.3.02-.09.32-.21,1.34.06,1.31l1.41-.11c-.02.2-.48,1.03-.76.9l-1.3-.56c-.13.54-.2,2.74.42,3.18s1.53.94,1.56,1.68c.04.78-.59,1.46-1.41,2.02l1.54,7.25c1.08,5.07,3.25,9.57,5.96,13.59,3.41,5.05,8.7,6.87,13.85,4.66,2.87-1.23,5.39-3.24,7.99-5.21,3.76-2.84,6.54-6.74,7.78-11.99l3.23-13.65ZM135.62,294.98c2.13-1.58,3.36-5.5,3.69-7.82.02-.12-.63-.55-.64-.42l-.08.76c-.23-.08-.58-.2-.57-.44l.04-1.08c.03-.63-.12-1.99.32-2.07.52-.1,1.1-.06,1.89.04,1.09-3.84.15-1.79,1.23-7.11.65-3.17-.92-6.56-3.17-8.39-2.08-1.69-4.79-2.35-7.31-2.23-3.45.17-6.37,2.96-6.75,7.13-.15,1.67-.07,3.64-.03,5.09.75-.71,1.41-1.11,2.04-.73.46.28.73,1.35.51,2.06-.17.55-.98.76-1.97.92l1.19,5.05.35-2.09c.59.75-.08,2.23.1,3.12.89,4.55,4.89,11.38,9.14,8.2Z"/>
  <path d="M450.47,666.99l.4,4.3.33,4.06.35,5.19c.22,3.31.68,6.72,3.68,9.77,3.22,3.27,10.36,4.65,16.06,3.02,3.33-.95,6.04-2.56,7.87-4.39,5.38-5.38,10.19-10.76,14.25-16.49,2.57-3.63,2.97-7.28,2.28-11.28l-4.72-27.38c-.81-4.7-2.14-8.82-.75-13.41,2.32-7.63-.22-14.8,1.7-22.31.73-2.86.65-5.69.96-8.54l1.49-13.87,1.39-7.94c1.1-6.3,1.36-12.61,1.65-19.07.14-3.01-2.38-5.96-3.98-8.88-4.02-7.3-7.42-14.44-10.27-21.84-.56-1.45-.51-3-.69-4.42-.86-6.77,5.45-12.85,18.64-13.99,10.96-.95,22.48,1.76,28.96,6.94,3.45,2.76,5.33,5.81,7.83,8.78,6.75,8.05,4.13,9.91,8.29,15.64,4.72,6.52,7.24,15.47,5.9,21.91l-.91,4.35-1.33,8.88-3.79,40.97-1.37,8.9c-.38,2.47-.45,4.76-.5,7.28l-.19,9.01.83,4.96,4.32,18.95c1.29,5.66.82,13.91,1.63,17.33l3.44,14.53c.44,1.85-.01,3.66.2,5.53l.34,2.94-.57,11.65c-.37,7.69,8.08,26.57,10.4,36.14,1.88,7.8,3.41,15.35,4.35,23.14.89,7.37,3.19,14.21,6.11,21.53,2.93,7.38,4.11,14.69,5.35,22.08s-8.97,12.8-22.57,12.84c-13.87.04-26.28-5.24-28.72-12.52-1.25-3.73-2.07-7.34-2.85-11.11-1-4.86-2.72-9.44-4.77-14.27-2.36-5.57-3.3-10.98-4.24-16.62l-1.06-6.37c-.36-.1-1.46-.4-1.7-.44-.36-.07-.41-.71-.05-.64l1.96.34-2.2-1.14c-.48-.25,1.26-1.01,1.25-1.39-.14-3.14-2.56-9.34-9.5-11.81-1.63-.58-5.94-.91-7.66-.58-7.65,1.47-9.96,6.5-12.36,10.04,1.91.64,3.45,3.16,2.75,3.41-.63.23-1.65.44-2.04.22-.66-.37-.99-.56-1.2-.66-.3-.15-1.27.39-1.42.79-4.57,12.59-10.76,26.49-18.11,38.98-2.46,4.19-5.83,7.71-9.54,11.45-4.75,4.79-15.34,7.19-26.22,5.99-10.62-1.17-20.27-5.61-22.6-11.34-1.57-3.87-2.24-7.64-2.84-11.55l-3.87-25.15c-.81-5.28-1.43-14.4-13.86-16.49-7.41-1.24-3.98-1.49-17.63-2.23l-1.18,1.28-.57-1.24c-.13-.27-1.7-.13-1.95.1l-.87.77c-.18.16-1.03-.85-1.4-.89l-11.56-1.26c-.75-.08-2.62,0-3.29-.04-.81-.04-1.45-1.07-2.29-1.38l-11.11-4.14c.02-.36-6.12.17-5.37-.83l.76-1.02-4.25-1.24,1.99,1.41-1.84-.34c-.48-.09-.34-1.32-.74-1.48-3.13-1.22-8.95-3.39-12.33-4.53l-4.46.21,3.01-.94-5.31-1.71c-.89.77-1.78,1.45-2.69,1.65-.82.18-2.86-.75-2.88-1.23l2.62.45c.61.1,1.07-.65,1.12-1.08.03-.31-1.34-.55-1.91-.48l-1.22.17c-.16.02-.2-.14-.1-.2l1-.67c-4.08-1.43-10.71-2.73-15.02-2.13.59.49.97.71.85.83l-.5.5c.49.56,1.09,1.6.5,1.98-.65.43-2.6.62-3.53.34-1.2-.35-1.23-1.28-1.55-2.57l-1.74,1.8c-.87.68-3.85,2.13-1.95,2.85,1.48.56,2.87,1.04,2.99,1.66s-1.51,1.23-3.36,1.58c3.62,6.26,6.84,17.76,5.27,23.67l-1.13,4.25c-1.08,4.08-2.68,7.77-7.48,10.83-5.22,3.34-9.92,6.83-17.11,9.1-5.65,1.78-10.79,3.77-16.9,5.07l-15.98,3.4c-11.16,2.38-21.76,4.77-33.64,6.42-6.81.94-13.82.59-21.12.35-14.46-.47-21.36-2.32-34.97-5.95-8.41-2.24-13.63-5.95-19.76-9.82-5.64-3.57-8.66-7.48-10.18-11.77-2.88-8.12-3.38-13.19-1.73-21.2l1.27-6.13.91-3.29c1.25-4.49,1.89-9.39-7.05-12.33-12.56-4.13-10.33-1.1-11.72-1.86l-2.4-1.32-.8-.44c-.13-.07-.26-.04-.25.05l.06.96c.03.52-3.05.44-3.96,0-.78-.38-.81-1.24-.82-2.06-.18-.58-.56-.2-.64.29,0,.34-.24,1.47-.9,1.51l-2.35.15-1.82,1.15-.16-4.18,3.17.03-12.1-3.37c-1.32-.37-3.07-.91-4.63-1.41l-1.81.95c-.54.28-2.37-.91-2.29-1.32.12-.59.26-1.79-.58-2.2l-5.68-2.77-.75.74c-.1.1-.69.42-.78.31l-.38-.44c-.01-.34.09-.67-.19-.71l-2.07-.28c-.88-.12-.44-1.68-.95-2.11-1.84-1.54-5.16-3.71-6.55-5.59l-13.88-18.7c-4.66-6.28-16.12-16.44-13.81-25.13l1.07-4.03c.66-2.49,1.1-5.27,3.34-7.49,3.45-3.41,7.65-6.45,12.28-9.39,3.7-2.35.12-2.05,2.15-3.11.49-.26,2.44.19,3.28.49l18.93-4.01c9.8-2.07,14.02-7.45,8.69-12.83l-8.45-8.55c-1.17.28-3.98.16-4.39-.47-.22-.34,1.01-1.2,1.23-1.11,1.6-.07,2.15-.13,1.01-.26-.75-.12-1.79-.18-1.56-.29s.85-.87.7-1.03c-4.48-4.76-4.28-5.78-8.79-10.56l-.53,2.76c1.15.56,1.44.7,1.19.58l-2.61-.07.48-2.98-.93-.27c-.17-.05-.5-.25-1.08-.6h3.41s-3.18-4.74-3.18-4.74c-.81.38-1.24.64-1.29.81-.12.44-.97,1.05-1.62.93s-2.2-.72-2.22-1.04l-.14-2.02,4.23.38c.74.65.79.68.49.37l-10.07-18.1c-5.77-10.38-10.29-20.04-7.59-30.44,1.92-7.39,5.98-14.01,11.86-20.59,3.19-3.57,8.65-6.33,16.88-7.04,15.69-1.36,26.25-1.14,42.33.85l7.24.89c4.22.52,8.42,1.15,12.62,1.03,12.58-.35,12.62-6.4,11.96-11.57l-1.49-11.67.07-8.53c.03-3.07-.3-6.2.48-9.26l1.16-4.54c1.11-4.34,2.27-8.15,5.02-12.32,4.51-6.83,10.91-14.49,17.38-20.63,1.51-1.44-3.49.41-5.68-2.16-.67-.78.62-1.86,2.59-1.84l2.49.02c.65,0,.73-.93.85-1.29.06-.17,1.25-.37,1.5-.24.34.17.79.55.78.78l-.07,1.13c0,.08.28.4.53.69l8.58-6.85-6.95-1.14c3.13-.57,5.13-.11,8.39.1l8.73-7.14,59.14,4.49-6.89,5.48,3.18,1.14.43,3.3c.03.22-.26.82-.38.96-.18.22-1.48.12-1.95.04s-.32-.68-.31-1.13l.05-2.41c0-.15-.77-.5-1.01-.58-2.52-.83-3.31,2.61-3.28,3.41-10.65,1.88.53,7-9.65,6.23-10.46,7.52-19.47,15.77-25.66,24.71-6.1,8.82-6.92,12.59-6.52,22.43.12,2.94,2.56,6.5,7.83,7.96,8.05,2.23,15.66.84,22.39-.71l21.25-4.9c6.28-1.45,12.66-2.12,19.88-2.2,8.86-.09,17.48-.29,26.31,1.04,5.83.88,12.14,1.2,17.59,2.7,8,2.19,15.71,4.62,22.51,7.69,5.88,2.66,9.77,6.1,14.1,9.36,7.76,5.84,9.89,10.1,18.09,15.14,8.7,5.35,18.71,2.4,26.58.1,9.56-2.79,22.46-2.2,31.64,2.18,1.83.87,4.79,2.41,5.82,3.53,4.32,4.76,8.13,9.6,9.72,14.66,2.4,7.67,4.88,14.93,8.83,22.52,3.37,6.47,5.41,12.75,8.08,19.28,4.07,9.95,6.33,19.44,8.23,29.49l8.63,45.73ZM189.78,714.98c-2.2.4-4.86,1.97-3.63,2.96l3.59.21c1.13.07.09,2.33-1.26,2.72-.55.16-2.36-.64-2.49-.98l-.84-2.29-4.25,4.97c2,.72,3.12,1.62,2.06,2.42s-2.26.77-4.46.22l-1.89,2.52c1.64.63,2.91,1.2,3,1.67s-1.15,1.41-2.03,1.49c-.76.07-1.8-.29-3.14-.71-9.85,10.28-17.78,19.53-17.92,31.76-.03,3.03.25,6.01,3.68,8.76,5.86,4.7,18.91,4.7,26.64,2.95l13.84-3.13c11.93-2.7,28.46-4.85,30.51-12.76,1.79-6.91-.88-10.84-4.55-17.49l-6.77-12.26c-1.79-3.25-3.72-6.68-5.97-9.79-1.85-.08-3.39-.16-4.18-.46-.67-.26-.8-1.33-.6-1.7l.48-.89c.08-.15-.91-.36-1.14-.26-2.46,1.06.34.5-1.97,1.58-.36.17-1.78.15-1.94-.1l-.84-1.33c-.17-.28-.6-1.36-.04-1.36l2.51-.03c-4.38-1.47-10.28-1.71-14.27-.15l-2.14,1.46ZM118.7,664.47c-.8.23-2.4.65-3.13.71s-1.66-1.28-2.44-1.42c-1.91-.34-5.54-.91-8.06-1.28.12.48.53,1.05,1.08,1.59.47.11-1.41.96-2,.7l-2.12-.95,2.11-.74c.3-.11-.35-.92-.73-.96l-8.38-1.01c-.14,1.05-.21,2.03-.98,2.23s-2.94,0-3.14-.45l-.91-1.97-1.67,2.04c-.62.09-2.75-.04-3.07-.37l-1.33-1.34-2.61,1.35c-1.02.53-1.94-2.89-11.92,1.36,0,.97.9,2.33,1.65,3.08-.69.27-1.69.89-2.15.69l-2.3-1.01c-3.94,2.71.5,8.51,3.82,11.81,6.64,6.6,9.19,13.83,15.6,18.67,6.84,5.16,19.2,7.63,30.42,6.36,8.27-.93,15.49-3.12,21.51-6.1,5.36-2.66,9.34-5.88,14.46-8.75,9.34-5.22,4.27-11.06.59-16.56l-1.19,2.56-.46-1.53-2.6-.07c-.97-.03-1.43-2.36-.19-2.5l2.76-.31c-1.7-2.71-5.98-4.84-11.83-5.71.46,1.55,1.25,2.29,2.32,3.76-.95-.15-1.99-1.08-2.65-1.81l-3.02,1.36,2.3-2.47c.27-.29-.27-1.2-.88-1.21-4.33-.08.17,2-3.33,2.36-.83.09-2.75-.31-2.97-.75l-.83-1.71-7.16.3.43,1.11c.04.1-.52.01-.63-.07l-.67-.49c-.32-.31-.43-.57-.67-.52l-1.02.26c-.43.11-1.5.38-1.23.31.2-.05-.61-.58-.76-.54ZM299.22,615.37l-7.92.4-.42,2.4c-1.04-.89-2.08-1.78-3.94-1.82-3.05-.06-6.36,1.2-8.48,2.17.39.38,1.39.98,1.12,1.16l-1.23.81-1.31.86c-.28.19-1.61-.21-2.4-.31-.87,1.53-1.26,3.36-.8,4.92.83-.97.69-1.66,1.41-1.72.92-.07,2.54-.2,2.95.14.34.28.6,1.3.48,1.6l-.43,1.07c-.07.18-1.2-.45-1.07-.62l.5-.61c.18-.22.07-.8-.08-1.06-1.09-1.89-2.04,2.12-3.47,2.34l7.42,9.27c1.47,1.83,2.37,3.75,3.6,5.63,4.4,6.73,1.22,7.25,3.13,12.63-3.79,6.65-.13,3.96-6.07,10.75-.54.61-1.08.98-2.11,1.44-4.76,2.11-7.22,5.42-6.51,8.85.53,2.57,3.61,4.68,6.66,6.8,1.77,1.23,4.71,3.27,6.76,4.06.77.3,4.35-.03,4.27.42-.19.77-1.08,1.48-.65,1.95.49.53,1.48,1.27,2.15,1.76,5.33,3.9,10.23,7.69,16.88,11.07,9.51,4.83,19.66,8.91,30.52,12.88,13.37,4.9,28.05,11.5,42.85,5.25,4.82-2.03,8.37-4.4,10.15-7.67,2.25-4.11,3.22-8.71,3.06-13.03-1.85-.68-3.17-1.55-3.05-2.4.13-.96,1.06-2.03,3.91-1.53,1.6-5.63.67-11.68-4.81-17.49-5.33-5.65-11.02-10.99-16.81-16.19.12,1.42-.29,2.59-1.93,2.49-1.06-.07-2.84-.69-3.4-1.31-1.05-1.16,4.1-1.35,4.1-1.68.01-.89-11.55-11.11-13.94-14.25l-16.11-21.16c-2.08.47-3.59.93-5.86,1.66l.42-3.84c8.09.96-4.84-4.84-6.29-5.2l-.6,2.87c-1.14,0-2.89-.14-3.72-.4-.69-.22-1.73-1.46-1.13-1.7.82-.33,2.51-.48,4.1-.65-.18-.59-3.8-1.42-4.49-.95-.05.74-.25,1.7-1.06,1.96-.9.28-3.16.05-3.63-.42-.56-.55-.29-1.45.45-2.18.1.03-.93-.29-1.42-.43-2.38-.73.32,3-1.94,2.74-1.33-.15-2.91-.4-3.4-.57,1.47-.28,2.71-.31,2.87-.65l.68-1.55c-3.31-.33-7.26-.43-10.53-.4.36.97.47,1.63-.12,1.9-.67.3-2.52.53-3.15.22-.53-.26-1.37-1.11-1.34-1.24l4.14-.63-6.47-.77c-1,1.25-.71,2.41.57,3.73l-2.34-.58c-.78-.19,1.46-2.23-.72-3.19ZM221.32,661.64l-3.55-.16c-3.03.89-7.58-1.74-7.73-.6-.02.18,0,.54.22.7l1.3.96-2.44-.26c-.61-.06-.31-.85-.44-1.59-1.59-.16-4.05-.02-5.6.25,2.07,2.74,4.61,4.67,9.76,5.75,0-.64-.4-1.23.22-1.26l2.78-.14c-.15-.06-.82-.28-1.14-.32l-1.92-.25c.49-.33,2.26-.51,3.11-.3s1.79,1.28,1.35,1.62l-1.57,1.23,3.48.25c-.67-.54-1.53-1.25-1.41-1.67.1-.36.92-1,1.38-1.3l.56,2.35.88-2.22,1.31,2.45,1-2.32.63,2.2c4.03-.9,7.82-2.38,9.44-4.97-3.78-.9-5.47,1.43-7.35.39l-1.3-.73c-1.21,0-2.07-.02-2.98-.06ZM223.36,636.7c-7.76-3.19-16.22-1.13-19.34,1.91-3.29,3.21-4.9,6.66-5.02,10.27l1.43-2.02c3.57,3.01-6.19,1.94.13,5.94l-.95,1.1.43,1.24,1.15,3.33c1.17-.31,3.02-.71,3.68-.4,2.08.96,1.76,2.01,3.42,1.82.32-.04.8-.42.56-.54l-1.82-.96,5.04.2-2.14,1.47,6.33.04c.5-.8.97-1,1.08-.5.96.93,1.56,1.23,1.45.22.53-.36,2.84-.83,3.35-.48l2.06,1.38,2.15-1.07c1.56-.78,2.07,1.82,6.98,1.81.35-1.04,1.15-2.92-.11-3.67-1.08-.65-2.86-1.35-2.62-1.83.33-.68,1.97-1.16,3.42-1.35,1.49-6.02.38-13.39-10.63-17.91ZM78.5,552c-.85-.57-1.36-.91-1-.67l1.81-.32c.26-.05-.15-.47-.43-.53l-1.72-.37,1.79-.38c.35-.07.32-.76.25-1.12-3.67.7-5.59,2.37-7.26,4.11.95.21,2.24.37,2.33.67l.36,1.16c.09.28,1.45.94.99,1.07l-1.85.55c-.35.1-1.03-.45-1.84-.9,1.02-.51,2.17-1.33.4-2.19-1.64,1.91-1.76,3.9-1.37,5.79,1.21-.97,3.59-.57,4.35-.03.6.43.45,1.53-.2,2.01-.53.39-1.9.09-4.21-.07l8.3,16.81c2.85,5.78,6.24,11.35,10.22,16.81,1.52-.73,3.43-1.06,5.28-.51.28,1.02.72,3.71-1.17,3.68l-2.01-.03,2.52,1.82c-.24.52.07,1.33.8,2.22l2.94-2.14,2,2.82-2.43-1.63-1.75,1.55,5.49,5.56-.32-2.56c2.7.19,4,.36,5.19,1.43l-4.05.69,3.68.31-3.89.87c3.22,3.01,6.4,6.12,9.84,8.74.85.65,1.49,1.31,2.53,2.26l1.2-2.18c1.44,1.1.6,2.2-.35,3.2,3.69,3.4,9.55,9.53,15.32,11.91,6.48,2.68,15.34,2.01,18.77-1.28,2.52-2.43,3.66-5.12,4.65-7.89l1.95-5.47c-1.82-.26-3.08-.9-3.54-1.69l4.17-.33-3.94-.69c1.22-.13,2.42-.1,4.33.1l2.53-5.18c.39-.8,1.92-2.06,2.47-2.72l-1.97-.84c-.21-.09.81-.33.61-.25l2.27.29c-1.17-.42-3.4-1.13-3.35-1.62.08-.86,2.97-.68,4.59-.06.47-.27,1.56-1.15,1.57-1.63l.08-3.93c1.64.19,4.21.19,4.64-.29,3.41-3.84,7.12-7.25-.84-11.04-4.15-1.97-9.65-3.07-14.78-4.46-12.87-3.49-17.86-11.6-25.87-17.26l-5.88-.3c1.1-.48,2.57-1.23,2.09-1.74-.43-.45-1.55-1.21-2.21-1.65l-1.33,2.14-1.32-2.71-2.1,2.45c-.61-.22-.81-1.55-.21-2.02.47-.36,2.28-.52,3.57-.63l-6.01-3.04-2.54-.33c-.47-.06-.02-1.29-.42-1.53-2.81-1.7-8.61-4.41-12.38-5.61-1.4.52-2.95.63-4.35.54l-.78-2.17c-.61.79-1.15,1.61-1.98,1.88s-3.69-.42-3.85-.95.45-1.27,1.15-2.07c-3.39-.99-11.36-.18-9.52.86l1.78,1-3.77,1.67ZM208.81,545.65c-.3.45,1.32,1.84,1.53,2.02l-3.38.83c2.09.83,1.32.72-.33.76l-5.31,7.37,2.81,1.07c.42.16-.5.71-.95.8l-2.26.47,2.5.38c.06.21-1.74.57-2.29.33l-1.73-.74-2.46,2.92c-.12.14.69.65.96.74s-1.58.2-1.67.35c-.35.62-.18,2.06.45,2.86.33.07-1.18.27-1.34.05l-.89-1.21-1.09,2.76,3.38.29c.49.04,1.02.9.59,1.01l-1.94.48c-.18.04-.74.34-.76.34s.5.08.71.11l1.43.22c.7.45-2.8.58-3.03.12l-1.05-2.16c-2.73,6.74-.35,7.55-7.08,14.11-2,1.95-3.74,4.63-2.08,6.85,2.5,3.35,9.47,4.87,15.71,5.22l8.63.49c12.66.71,24.97,7.56,38.21,1.32l14.61-6.88c8.08-3.81,16.01-7.63,20.77-12.9.18-.2.34-.92-.02-1.06l-1.89-.78,4.75.04,6.4-5.67c.26-.23,3.59-3.99,2.17-4.38.87-.32,2.64-1.61,1.95-2.25-1.12-1.03-1.66-1.82-2.38-3.18l4.12-.15.42-3.08-3.11.35c-.61.07-1.31-1.07-.98-1,1.43.29,2.56.51,2.81.2.22-.27.54-1.18-.04-1.21l-3.05-.13c.05-.18,1.1-.86,1.7-.7l2.77.72c.33-.47.61-2.46-.7-2.96s-3.23-1.11-3.26-1.79c-.03-.72,1.37-1.24,3.18-1.61l-2.82-6.85c-1.97-4.8-6.35-9.25-11.93-13.35-7.02-5.16-18.31-7.68-29.59-6.51-6.29.65-11.86,2.07-17.62,3.42-8.31,1.96-14.59,5.06-17.63,9.64l-7.92,11.89ZM354.68,566.58c-4.7,1.09-7.64,4.45-8.51,6.51-.05.11,1.33.6,1.36.49l.22-.68c.49.11,1.24.27,1.2.5l-.17.97c-.1.57.13,1.83-.84,1.83-1.14,0-2.37-.13-4.09-.35-2.61,3.32-.44,1.6-3.15,6.27-1.62,2.78,1.53,6.12,6.26,8.16,4.37,1.88,10.19,2.93,15.63,3.23,7.47.42,13.97-1.65,15.06-5.38.44-1.5.4-3.3.42-4.63-1.68.52-3.13.77-4.45.33-.98-.33-1.48-1.35-.95-1.96.41-.47,2.16-.53,4.32-.51l-2.23-4.79-.9,1.84c-1.21-.78.32-2.01,0-2.86-1.61-4.29-9.77-11.16-19.18-8.97Z"/>
  <path d="M389.64,302.55l3.83-2.03,3.63-1.89,4.66-2.39c2.97-1.53,5.98-3.19,8-5.69,2.18-2.69,1.62-6.08-1.32-7.61-1.71-.89-3.87-1.25-6.01-1.17-6.28.23-12.43.69-18.7,1.59-3.97.57-7.41,2-10.9,4.02l-23.85,13.76c-4.1,2.36-7.53,4.68-12.08,6.13-7.57,2.41-13.49,6.53-20.84,9.04-2.81.96-5.37,2.22-8.05,3.34l-13.06,5.45-7.62,2.91c-6.05,2.31-11.88,4.95-17.86,7.65-2.79,1.25-4.85,3.52-7.11,5.43-5.66,4.75-11.32,9.19-17.37,13.52-1.19.85-2.61,1.5-3.86,2.19-5.97,3.28-13.14,3.45-17.53-1.21-3.65-3.88-4.1-9.57-1.01-14.36,1.65-2.55,3.96-4.62,6.05-6.89,5.65-6.14,8.02-5.93,12.21-10.05,4.76-4.68,12.31-9.57,18.55-11.84l4.21-1.54,8.46-3.34,38.44-16.34,8.49-3.34c2.36-.93,4.47-1.89,6.79-2.97l8.29-3.85,4.32-2.48,16.24-9.94c4.85-2.97,12.51-6.37,15.44-8.18l12.41-7.67c1.58-.98,3.35-1.59,5-2.48l2.6-1.41,10.8-4.85c7.13-3.2,22.25-14.73,30.42-19.8,6.65-4.13,13.18-8.01,20.07-11.77,6.52-3.56,12.18-7.43,18.15-11.76,6.01-4.36,12.39-8,18.84-11.7,6.44-3.7,13.98-2.06,17.47,3.25s1.88,12.57-4.16,16.69c-3.1,2.11-6.19,4.01-9.44,5.95-4.19,2.5-7.94,5.17-11.84,8.08-4.49,3.35-9.21,6.07-14.13,8.89l-5.56,3.19c0,.18,0,.74.03.86.03.17-.54.47-.58.3l-.19-.92-.49,1.36c-.11.3-1.24-.06-1.59.11-2.84,1.42-7.9,5.07-8.39,8.86-.12.89.68,2.72,1.42,3.25,3.29,2.35,8.48,1.07,12.32.47.1-1.03,2.01-2.73,2.42-2.56.37.15.82.46.72.7-.17.42-.26.63-.3.76-.06.18.68.33,1.08.21,12.67-3.69,26.97-7.31,40.26-9.87,4.46-.86,8.54-1.07,12.9-1.25,5.58-.22,10.48,2.88,12.14,7.66,1.62,4.67.01,10.38-4.64,13.78-3.14,2.3-6.42,4.2-9.85,6.14l-22.02,12.46c-4.62,2.62-12.81,6.83-11.56,12.6.74,3.44-.36,2.21,2.44,7.87l1.47-.1-.99.76c-.22.17.32.72.59.72h.92c.19,0-.51.78-.45.94l1.79,5.07c.12.33.66,1.03.8,1.31.17.33-.61,1.03-.68,1.5l-.96,6.15c-.34.15,1.71,2.32.6,2.47l-1.13.14-.06,2.21.78-1.39.16.87c.04.23-1.12.71-1.16.93-.32,1.76-.83,4.98-1.02,6.8l1.32,1.66-1.62-.77-.22,2.82c.93.01,1.78.06,2.19.33.37.24.04,1.44-.4,1.67l-.26-1.22c-.06-.29-.86-.14-1.27.03-.3.12-.17.76.05.96l.46.4c.06.05-.08.14-.16.13l-.87-.1c-.27,2.22.22,5.38,1.87,6.81.3-.44.4-.69.54-.69l.58-.02c.39-.43,1.18-1.12,1.69-1.06.56.07,1.22.75,1.21,1.23-.02.62-.86,1.04-1.96,1.73l2.09-.1c.85.05,2.92.58,3.1-.48.14-.82.22-1.57.76-1.9s1.51.06,2.3.63c4.81-4.14,14.51-10.41,20.31-12.36l4.18-1.41c4.01-1.35,7.78-2.33,11.81-1.78,4.38.59,8.77.91,12.67,2.74,3.07,1.44,6.19,2.59,8.93,4.41l7.17,4.78c5.01,3.33,9.89,6.44,14.41,10.38,2.59,2.26,4.05,5.16,5.68,8.12,3.24,5.87,3.3,9.38,3.44,16.28.08,4.27-1.98,7.93-3.97,12.01-1.83,3.76-4.64,6.65-8.18,9.11-6.7,4.66-11.2,7.06-18.95,9.9l-5.93,2.17-3.24,1.07c-4.43,1.47-9.07,3.35-9.49,8.12-.59,6.71,1.62,4.52,1.28,5.4l-.59,1.52-.2.51c-.03.08.03.12.11.08l.86-.44c.47-.24,1.17,1,1,1.55-.15.47-.93.85-1.67,1.22-.49.33-.04.31.43.12.31-.15,1.41-.54,1.61-.3l.73.86,1.52.21-3.78,1.88-.77-1.26v6.2c-.01.68-.06,1.6-.12,2.43l1.33.3c.4.09-.23,1.33-.62,1.47-.57.21-1.7.68-1.87,1.19l-1.09,3.43.87-.03c.12,0,.56.09.48.17l-.3.34c-.31.15-.63.26-.6.38l.27.94c.11.4-1.42.9-1.69,1.29-.94,1.39-2.09,3.64-3.45,5l-13.59,13.57c-4.56,4.55-10.95,13.47-19.48,16.34l-3.96,1.34c-2.44.82-5.1,1.86-7.7,1.95-4,.13-7.84-.19-11.71-.73-3.09-.43-1.9.84-3.39.51-.36-.08-.44-1.04-.38-1.5l-8.47-5.67c-4.38-2.93-10.37-2.25-13.94,2.18l-5.67,7.03c.55.34,1.16,1.49.69,1.92-.26.24-1.35.13-1.33,0-.47-.6-.67-.79-.49-.28.08.35.29.78.13.73s-1.01.04-1.12.17c-3.22,3.83-4.2,4.19-7.43,8.04l2.66-.99c.22-.69.28-.87.23-.72l.6,1.05-2.84,1.11v.48c0,.09-.11.31-.28.69l-.87-1.33-3.52,3.3c.56.15.9.21,1.07.15.44-.15,1.21-.08,1.26.23s-.1,1.18-.39,1.33l-1.82.93-.73-1.82c.4-.57.42-.61.21-.35l-14,11.82c-8.03,6.77-15.72,12.75-25.91,16.21-7.24,2.46-14.33,3.75-21.85,4.31-4.07.3-7.99-.63-10.73-3.54-5.22-5.55-7.7-9.78-9.97-16.95l-1.02-3.22c-.59-1.88-1.09-3.8-2.26-5.39-3.52-4.77-9.06-2.16-13.62.35l-10.3,5.66-7.82,3.68c-2.81,1.33-5.6,2.81-8.59,3.84l-4.45,1.52c-4.25,1.45-8.03,2.66-12.54,3.39-7.39,1.2-16.02,2.03-23.28,2.17-1.7.03,1.26,1.19-.54,3.17-.55.6-1.86.57-2.34-.21l-.61-.98c-.16-.26-1.04.12-1.4.23-.17.05-.65-.33-.6-.49.07-.21.31-.55.52-.64l1.06-.46c.07-.03.29-.28.49-.51l-8.44-.38.72,3.22c-1.31-.98-1.4-1.96-2.04-3.33l-8.75-.31-10.91-25.11,6.76.31.23-1.74,2.9-1.6c.19-.1.81-.25.98-.27.25-.02.49.53.53.75s-.54.42-.96.61l-2.22,1.03c-.14.06-.26.52-.27.65-.12,1.35,3.23.16,3.95-.2,4.42,3.35,6.26-3.25,8.15,1.07,9.54.82,19.37.76,29.12-.7s13.27-2.77,22.17-7.2c2.66-1.33,5.3-3.83,5.3-6.53,0-4.12-3.21-6.5-6.34-8.46l-9.88-6.19c-2.92-1.83-5.16-4.04-7.06-6.83-2.33-3.43-4.7-6.72-5.73-10.76-.68-2.67-1.98-5.28-2-8.06-.03-4.09.24-8.16,1.32-12.16.94-3.46,3.1-6.48,4.98-9.59,3.37-5.58,6.73-8.27,9.26-13.67,2.68-5.73-2.56-8.37-6.66-10.45-4.98-2.53-7.72-7.84-6.04-13.34.33-1.1.98-2.92,1.75-3.81,3.26-3.76,6.72-7.36,10.94-10.18,6.4-4.28,12.42-8.41,18.36-13.26,5.07-4.14,10.29-7.66,15.59-11.55,8.07-5.92,16.17-10.93,24.89-16.05l39.64-23.28ZM499.73,383.77c.93.69,3.03,1.05,3.63.13l-.72-1.5c-.23-.47,2.11-1.05,2.81-.69.28.14.02,1.2-.27,1.4l-1.88,1.33,5.62-.5c.15-1.1.69-1.93,1.69-1.86s1.28.55,1.34,1.65l2.79-.36c.16-.91.36-1.66.76-1.9s1.58-.16,1.88.15c.26.26.19.83.15,1.54,11.9-.61,22.38-1.54,33.6-6.8,2.78-1.3,5.43-2.71,7.08-5.25,2.81-4.34-.5-9.45-4.06-11.72l-6.38-4.06c-5.5-3.5-11.66-9.04-19.42-6.4-6.78,2.31-9.69,5.06-14.84,9.39l-9.5,7.98c-2.52,2.12-5.17,4.36-7.44,6.6.4.76.72,1.4.64,1.84-.07.38-1.01.89-1.41.98l-.93.2c-.16.03-.1.51.06.56,1.6.5.37-.35,1.95.08.24.07.59.63.4.8l-1.01.91c-.21.19-1.09.83-1.24.61l-.67-.97c-.23,2.36,1.04,4.77,3.49,5.65l1.88.21ZM471.57,433.58c.42.21,1.2.66,1.45.92s-.75,1.21-.68,1.57c.17.9.57,2.56.88,3.71.41-.26.83-.67,1.18-1.12-.02-.23,1.24.13,1.15.48l-.33,1.24-1.21-.5c-.17-.07-.75.53-.7.71l1.2,3.72c1-.4,1.91-.8,2.29-.59s.74,1.15.38,1.43l-1.57,1.21,2.29-.23c.24.21.66,1.09.45,1.36l-.89,1.1,1.89.43c.74.17-2.15,2.02,4.27,4.08.88-.42,1.91-1.37,2.4-1.99.42.15,1.24.28,1.17.55l-.34,1.34c3.48.36,7.66-3.9,9.83-6.63,4.35-5.47,10.32-9.61,13.12-14.23,2.99-4.93,2.1-10.84-1.9-14.68-2.95-2.83-6.79-4.71-11.04-5.77-3.79-.94-7.75-1.1-11.67-1.86-7.15-1.38-11.2,3.14-15.29,6.97l2.64-.65-1.28.85.6,1.05c.22.39-1.79,1.58-2.23,1.16l-.98-.95c-2.04,1.84-2.91,4.45-2.22,7.12,1.3-.85,1.77-1.48,2.85-2.54.11.43-.48,1.25-.98,1.82l2.01.59-2.85.18c-.33.02-1.03.63-.88.87,1.02,1.73,1.78-.93,3,.28.29.29.42,1.21.07,1.49l-1.35,1.07,2.1,2.67.9-.65c.08-.06.14.2.1.28l-.27.48c-.21.26-.42.42-.3.49l.49.29c.21.12.73.42.59.35-.1-.06-.38.49-.3.53ZM380.82,384.25l2.38,2.93,2.3-.88c-.54.79-1.1,1.59-.66,2.33.72,1.22,2.71,1.97,4.13,2.38.25-.32.55-.97.77-.94l1.05.13,1.12.14c.24.03.21.72.32,1.08,1.63-.33,3.39-.97,4.7-1.83-1.1.1-1.7.45-1.93.19-.29-.33-.83-.91-.62-1.22.17-.26,1.04-.8,1.34-.88l1.09-.3c.19-.05-.1.67-.29.69l-.69.07c-.25.03-.75.32-.95.49-1.45,1.25,2.46-.12,3.03.34l6.6-6.94c1.31-1.37,2.83-2.56,4.24-3.86,5.04-4.65,6.32-3.63,10.76-6.72,7.04-1.41,3.66-1.67,11.38-2.3.7-.06,1.16,0,1.85.2,3.14.95,6.79.47,9.74-1.3,2.22-1.33,3.36-3.45,4.53-5.57.68-1.23,1.8-3.27,2-4.41.08-.43-1.13-1.69-.7-1.86.75-.26,1.63-.22,1.95-.59.36-.42.79-1.13,1.07-1.61,2.21-3.78,4.44-7.35,5.84-11.43,2-5.83,3.16-11.58,4.04-17.56,1.09-7.37,3.39-15.99-6.07-19.07-3.08-1-6.15-1.36-9.59-.64-4.33.91-8.78,2.53-12.69,4.47-.15,1.02-.61,1.92-1.42,2.24-.91.36-2.13.47-2.39-.87-5.55,1.82-10.86,4.82-14.78,9.5-3.81,4.54-7.26,9.1-10.54,13.63,1.27-.66,2.45-1.02,2.77-.33.21.44.09,1.41-.34,1.9-.8.92-2.27-1.02-2.58-.88-.82.38-7.23,9.36-9.49,11.66l-15.26,15.51c.96.61,1.76,1,3.01,1.57l-3.62,1.51c-1.18-3.59-3.2,4-3.16,4.73l2.77-1.01c.29.45.61,1.19.58,1.63-.02.36-.9,1.31-1.27,1.18-.51-.18-1.08-.77-1.64-1.32-.49.33-.33,2.11.27,2.17.69-.3,1.62-.64,2.06-.43.48.23.85,1.22.54,1.61-.36.46-1.26.74-2.11.77,0-.05-.02.49-.04.74-.07,1.25,2.66-1.43,3-.43.2.59.37,1.32.34,1.58-.63-.45-.97-.93-1.32-.84l-1.59.41c.54,1.44,1.45,3.03,2.31,4.3.79-.56,1.38-.89,1.77-.78.45.13,1.12.76,1,1.14-.1.32-.67,1.02-.8,1.07l-1.63-1.35.94,2.87c1.4-.15,2.39-.77,3.27-1.85l.07,1.17c.02.39-2.41.4-2.73,1.67ZM442.92,394.62l.76,1.46c1.58.8.33,3.73,1.41,3.29.17-.07.49-.24.58-.39l.55-.93.39,1.07c.1.27-.7.49-1.34.86.26.69,1.01,1.59,1.65,2.08,1.98-2,3.1-3.83,2.78-6.33-.58.28-1.03.69-1.21.46l-.84-1.02c-.02.09-.04.44,0,.58l.26.86c-.43-.05-1.04-.67-1.06-1.09s.71-1.26,1.14-1.24l1.52.08-.66-1.47c-.32.5-.75,1.14-1.17,1.28-.35.12-1.15.07-1.54.02l2.01-1.24-2.26.62,1.9-1.58-2.38.62,1.85-1.2c-1.84-1.19-4.16-2.03-6.95-1.54.13,1.87,2.7,1.52,2.22,2.71l-.33.83c.31.48.51.82.71,1.19ZM419.6,404.67c-.94,4.42,3.08,6.84,6.66,6.74,3.77-.11,7.33-.98,10.67-2.5l-2.21.32c1.84-2.71,3.34,1.58,5.4-2.64l1.25-.1,1.02-.7,2.76-1.9c-.58-.32-1.42-.87-1.31-1.27.35-1.23,1.39-1.56.8-2.13-.12-.11-.58-.13-.64.02l-.41,1.13-1.09-2.06,1.89.2-1.57-2.5c-.86.15-1.16.05-.73-.21.61-.78.73-1.14-.17-.66-.47-.05-1.48-.75-1.29-1.1l.74-1.41-1.53-.37c-1.11-.27,1.14-1.6-.12-3.52-1.04.32-2.96.82-3.33,1.64-.32.71-.51,1.7-1.01,1.82-.7.17-1.56-.27-2.1-.75-5.89,2.04-12.35,5.68-13.69,11.96ZM378.9,498.25c-.31.58-.49.93-.36.68l-.75-.57c-.11-.08-.39.26-.38.4l.1.84-.8-.54c-.16-.11-.77.21-1.09.39,1.57,1.13,3.59,1.16,5.6,1.05-.05-.46-.23-1.04.02-1.2l.97-.64c.24-.16.49-.98.73-.86l.97.48c.19.09-.15.6-.36,1.11-.73-.18-1.77-.27-2.11.8,2.17-.19,4.01-1.01,5.64-1.98-1.2-.05-1.44-1.16-1.13-1.69.24-.42,1.29-.84,1.89-.8.49.04.57.7,1.01,1.68l13.27-10.56c4.56-3.63,8.8-7.38,12.78-11.31-1.06-.28-1.84-.88-1.8-1.84.86-.55,3.21-1.89,3.66-1.14l.48.8,1.03-1.78c.54-.13,1.2-.61,1.82-1.28l-2.7-.22,2.07-2.01-.88,1.66h1.87s3.69-4.56,3.69-4.56l-2.26,1.24c-.52-1.14-.69-1.72,0-2.65l1.66,1.28-.65-1.58,1.78,1.15c1.93-2.57,3.97-5.17,5.5-7.65.38-.62.82-1.15,1.42-1.97l-2.3.48c.64-1.04,1.86-1.19,3.02-1.26,2.17-2.92,6.29-7.89,7-11.18.8-3.7-2.06-6.88-5.94-6.79-2.86.07-5.62.79-8.4,1.61l-5.5,1.61c.23.82-.04,1.6-.65,2.12l-1.36-1.49.37,1.84c-.43-.42-.71-.9-1-1.74l-5.38,1.26c-.83.19-2.37.14-3.11.21l-.27,1.14c-.03.12-.51-.17-.39-.13l-.31-1.02c-.09.64-.17,1.82-.63,2.02-.81.34-1.38-.86-1.22-1.77-.37-.07-1.45-.11-1.89.09l-3.61,1.68c-.25-.72-.9-1.73-1.45-1.69-4.38.34-8.44.37-9.89,5.13-.75,2.48-.36,5.12-.33,7.73.08,6.56-6.07,12.04-9.22,17.64l1.22,2.43c-.72-.22-1.78-.47-2.12-.06-.3.36-.71,1.13-.95,1.59l2.3-.41-2.14,1.69,2.77-.24c-.05.33-1.21.99-1.79.96-.45-.03-1.05-.67-1.48-1.12l-1.25,3.68.34,1.14c.06.21-1.17.57-1.29.83-.84,1.84-1.85,5.29-1.98,7.29.83.32,1.32.88,1.6,1.47l-1.78,1.25c.88-.1,1.77-.25,2.22-.04s.55,1.63.11,1.92-1.28.38-2.18.45c-.05,1.76,2.72,4.53,3.2,3.35l.47-1.13,2.48.75ZM340,449.99c.49-.08,1.35-1.32,1.46-1.48l1.61.96c.23-1.18.32-.83.78-.2l8.09-1.13.26-1.57c.04-.23.77-.11.97.02l1.01.68-.28-1.14c.18-.11.96.44.89.75l-.24,1,3.3-.31c.16-.01.42-.55.44-.7s.59.53.74.5c.66-.13,1.94-.83,2.51-1.42-.02-.16.55.34.39.5l-.88.88,2.8-.77-.59-1.45c-.09-.21.57-.79.77-.67l.93.55c.09.05.5.14.5.15s-.06-.23-.08-.33l-.16-.66c.24-.47,1.25.84.88,1.13l-1.71,1.35c6.86-1.86,6.99-3.15,14.7-3.37,2.29-.07,5.18-.55,6.8-2.17,2.43-2.44,2.05-5.83.79-8.42l-1.75-3.59c-2.56-5.27.57-13.07-8.49-15.54l-10-2.73c-5.53-1.51-11.05-2.95-17.07-2.52-.23.02-.93.27-.97.47l-.23,1.08-1.17-1.88-6.81-.04c-.27,0-4.57.33-4.56,1.05-.51-.2-2.15-.33-2.56.22-.66.89-1.24,1.44-2.31,2.32l-1.18-1.55-2.92,1.18,1.11,1.07c.22.21-.65.98-.66.82-.1-.68-.18-1.23-.54-1.19-.3.03-1.22.3-1.09.54l.65,1.25c-.18.06-1.06-.06-1.07-.36l-.04-1.4c-.51.08-2.41.83-2.53,1.56s-.19,1.75-.81,2.05c-.65.32-1.48,0-2.28-.54l-5.55,4.08c-3.89,2.86-6.85,6.51-9.18,10.48-2.93,4.99-2.37,10.51,1.55,14.42,2.19,2.18,4.9,3.75,7.61,5.41,3.91,2.4,8.34,3.51,13.29,2.71l12.89-2.07ZM322.11,383.75c2.19,1.37,6.01,1.06,8.11.5.11-.03.21-.78.1-.75l-.68.21c-.02-.24-.06-.6.15-.68l.93-.36c.55-.21,1.64-.84,1.89-.47.29.44.49.98.72,1.75,3.7-.42,1.58-.53,6.53-1.5,2.96-.58,5.21-3.27,5.87-6,.61-2.53.09-5.27-1.01-7.53-1.52-3.11-5.05-4.75-8.75-3.56-1.48.48-3.12,1.28-4.34,1.85.9.43,1.5.89,1.43,1.6-.05.52-.86,1.17-1.55,1.23-.54.04-1.03-.62-1.57-1.47l-3.82,2.96,1.91-.45c-.4.81-1.92.75-2.61,1.24-3.51,2.49-7.73,8.68-3.34,11.42Z"/>
</svg>