<?xml version="1.0" encoding="UTF-8"?>
<svg id="Ebene_1" xmlns="http://www.w3.org/2000/svg" version="1.1" viewBox="0 0 595.28 841.89">
  <!-- Generator: Adobe Illustrator 30.1.0, SVG Export Plug-In . SVG Version: 2.1.1 Build 136)  -->
  <defs>
    <style>
      .st0 {
        fill: #161616;
      }
    </style>
  </defs>
  <path class="st0" d="M366.02,217.42c-9.64-38.36-24.54-75.97-42.8-96.86-53,210.31-6.11,152,42.8,96.86Z"/>
  <path class="st0" d="M216.73,359.29l26.16-207.83c-9.28,17.88-18.71,41.35-28.19,71.42-83.95,266.39,74.33-216.78,3.84-209.14C148.05,21.36,23.09,45.79,23.09,45.79l61.52-4.58s99.97-4.58,69.85,135.87c-19.13,89.2-68.24,164.23-101.53,206.91,25.94-27.8,62.37-62.66,91.28-74.86,49.5-20.9,61.63,132.6,79.52,110.16-14.41-12.51-7-60-7-60Z"/>
  <path class="st0" d="M316.46,113.75c-19.81-17.28-43.01-14.36-67.47,26.7-.27,121.97,37.74,48.64,67.47-26.7Z"/>
  <path class="st0" d="M19.89,422.09c0,.28,13.91-13.58,33.04-38.1-19.48,20.88-33.04,37.78-33.04,38.1Z"/>
  <path class="st0" d="M270.32,396.45c-14.26,15.03-24.96,22.55-32.95,24.94,9.7-1.59,33.07-6.14,58.03-16.35,7.96-14.09,20.07-35.57,33.04-58.83-16.16,17.97-38.87,36.17-58.12,50.23Z"/>
  <path class="st0" d="M345.64,294.76c2.97,4.04,4.15,8.58,3.87,13.49,9.27-16.83,18.1-33.03,25.28-46.56-.48-3.3-1-6.65-1.57-10.02-4.85,7.43-10.73,16.61-17.77,27.75-3.35,5.3-6.61,10.4-9.81,15.35Z"/>
  <path class="st0" d="M281.88,803.17s99.97,4.58,69.85-135.87c-6.35-29.59-16-57.61-27.27-83.42l-81.71,181.24c81.9-329.14-69.85,65.79-69.85,65.79h207.56v-4.78c-70.29-10-160.1-27.55-160.1-27.55l61.52,4.58Z"/>
  <path class="st0" d="M217.27,422.46H88.57s181.92,320.16,69.6,142.5C-9.51,299.72,19.45,485.09,19.45,485.09l34.03,270.38c-18.08-310.21,108.49,100.04,99.95,70.01-141.74-498.51,54.4-84.97,83.91-160.19,27.42-69.88-78.04-230.85,1.75-217.05-12.53-14.01-20.86-24.35-21.83-25.78Z"/>
  <path class="st0" d="M240.7,448.54c22.75,4.46,59.81,22.4,117.95,59.49l-12.9,28.61c14.57,3.36,25.72-8.81,34.7-26.32v-87.85h-163.07c1.48,1.32,10.48,10.5,23.31,26.07Z"/>
  <path class="st0" d="M429.91,422.28s199.93,123.66,76.9,143.5c-123.03,19.85-66-107.63-84.59-138.92-12.46-20.97-21.75,44.45-41.76,83.45v315.82c12.62,1.79,24.62,3.35,35.35,4.51,70.49,7.63-87.79-475.54-3.84-209.14,83.95,266.39,164.69,16.79,163.41-82.44-1.28-99.23-145.46-116.79-145.46-116.79Z"/>
  <path class="st0" d="M217.16,422.28s.04.08.11.18h.13c-.14-.13-.23-.2-.23-.18Z"/>
  <path class="st0" d="M341.48,535.25c-28.91-12.21-65.34-47.06-91.28-74.86,22.25,28.53,51.55,71.5,74.26,123.49l21.3-47.24c-1.4-.32-2.82-.77-4.28-1.39Z"/>
  <path class="st0" d="M239.1,448.24c3.41,3.81,7.13,7.9,11.1,12.15-3.34-4.28-6.52-8.24-9.5-11.85-.54-.11-1.08-.21-1.6-.3Z"/>
  <path class="st0" d="M270.32,396.45c18.49-19.49,42.98-51.64,75.32-101.69-5.41-7.36-16.77-13.05-36.1-16.17-123.03-19.85-66,107.63-84.59,138.92-.41.69-.82,1.26-1.23,1.77,3.29,2.86,7.73,3.89,13.65,2.11-3.03.5-4.73.7-4.73.7,0,0,16.81-10.4,37.68-25.64Z"/>
  <path class="st0" d="M370.18,13.46s151.75,394.94,69.85,65.79l115.9,257.1c-269.74,172.07-86.13-67.59-121.31-157.26-10.1-25.74-39.7,5.74-68.6,38.33,2.89,11.49,5.31,23.05,7.2,34.25,28.48-43.64,21.06-26.66,1.57,10.02,2.31,16.05,3.47,31.04,3.31,43.62-.7,53.96-43.65,83.77-82.7,99.74-5.92,10.48-9.56,16.87-9.56,16.87h291.89V13.46h-207.56Z"/>
  <path class="st0" d="M349.51,308.25c-6.94,12.59-14.13,25.53-21.07,37.97,12.03-13.38,20.43-26.64,21.07-37.97Z"/>
  <path class="st0" d="M323.22,120.56c7.23-28.67,16.3-62.32,27.49-101.66,3.29-11.56-13.45,42.13-34.25,94.85,2.3,2.01,4.55,4.29,6.76,6.82Z"/>
  <path class="st0" d="M250.75,88.91l-7.87,62.55c2.04-3.94,4.08-7.61,6.11-11.01.03-14.37.59-31.43,1.76-51.54Z"/>
</svg>